<?xml version="1.0" encoding="UTF-8"?>
<svg width="319px" height="243px" viewBox="0 0 319 243" version="1.1" xmlns="http://www.w3.org/2000/svg" xmlns:xlink="http://www.w3.org/1999/xlink">
    <!-- Generator: Sketch 54.1 (76490) - https://sketchapp.com -->
    <title>pic_safety_heart</title>
    <desc>Created with Sketch.</desc>
    <defs>
        <linearGradient x1="50%" y1="0%" x2="50%" y2="100%" id="linearGradient-1">
            <stop stop-color="#DE5454" stop-opacity="0" offset="0%"></stop>
            <stop stop-color="#B058E5" offset="100%"></stop>
        </linearGradient>
        <linearGradient x1="50%" y1="0%" x2="50%" y2="100%" id="linearGradient-2">
            <stop stop-color="#DE5454" stop-opacity="0" offset="0%"></stop>
            <stop stop-color="#B058E5" offset="100%"></stop>
        </linearGradient>
        <path d="M132.537224,178.010939 C129.715886,177.996569 126.897644,177.196932 124.420814,175.612027 C108.068609,165.147057 72.8272357,138.083759 56.2336402,117.302913 C22.635455,75.2260987 46.3950225,39.7441243 68.5847657,30.9523192 C90.7618872,22.1652472 119.662432,28.2828289 132.614666,48.7457653 C145.5669,28.2828289 174.467445,22.1652472 196.644567,30.9523192 C218.83431,39.7441243 242.593877,75.2260987 208.995692,117.302913 C192.402097,138.083759 157.160724,165.147057 140.808518,175.612027 C138.331688,177.196932 135.513446,177.996569 132.692109,178.010939 L132.537224,178.010939" id="path-3"></path>
        <filter x="-4.0%" y="-3.6%" width="108.0%" height="109.9%" filterUnits="objectBoundingBox" id="filter-5">
            <feMorphology radius="0.4224" operator="dilate" in="SourceAlpha" result="shadowSpreadOuter1"></feMorphology>
            <feOffset dx="0" dy="2" in="shadowSpreadOuter1" result="shadowOffsetOuter1"></feOffset>
            <feMorphology radius="1" operator="erode" in="SourceAlpha" result="shadowInner"></feMorphology>
            <feOffset dx="0" dy="2" in="shadowInner" result="shadowInner"></feOffset>
            <feComposite in="shadowOffsetOuter1" in2="shadowInner" operator="out" result="shadowOffsetOuter1"></feComposite>
            <feGaussianBlur stdDeviation="2" in="shadowOffsetOuter1" result="shadowBlurOuter1"></feGaussianBlur>
            <feColorMatrix values="0 0 0 0 0   0 0 0 0 0   0 0 0 0 0  0 0 0 0.5 0" type="matrix" in="shadowBlurOuter1"></feColorMatrix>
        </filter>
        <filter x="-7.8%" y="-8.3%" width="115.5%" height="119.1%" filterUnits="objectBoundingBox" id="filter-6">
            <feGaussianBlur stdDeviation="10" in="SourceAlpha" result="shadowBlurInner1"></feGaussianBlur>
            <feOffset dx="0" dy="0" in="shadowBlurInner1" result="shadowOffsetInner1"></feOffset>
            <feComposite in="shadowOffsetInner1" in2="SourceAlpha" operator="arithmetic" k2="-1" k3="1" result="shadowInnerInner1"></feComposite>
            <feColorMatrix values="0 0 0 0 0.780572739   0 0 0 0 0.0287591581   0 0 0 0 0.872900723  0 0 0 0.363054801 0" type="matrix" in="shadowInnerInner1"></feColorMatrix>
        </filter>
        <linearGradient x1="54.4419967%" y1="12.7659872%" x2="54.4419967%" y2="72.2752558%" id="linearGradient-7">
            <stop stop-color="#66348A" offset="0%"></stop>
            <stop stop-color="#422C50" offset="100%"></stop>
        </linearGradient>
        <linearGradient x1="58.3130758%" y1="41.3758417%" x2="50.8822614%" y2="55.0217558%" id="linearGradient-8">
            <stop stop-color="#742995" offset="0%"></stop>
            <stop stop-color="#442148" offset="100%"></stop>
        </linearGradient>
        <linearGradient x1="45.0601306%" y1="-39.3745486%" x2="45.0601306%" y2="100%" id="linearGradient-9">
            <stop stop-color="#BE36BD" stop-opacity="0" offset="0%"></stop>
            <stop stop-color="#901CA7" stop-opacity="0.576504907" offset="58.9158166%"></stop>
            <stop stop-color="#C343E6" stop-opacity="0.760111255" offset="80.8216117%"></stop>
            <stop stop-color="#FF7E57" offset="100%"></stop>
        </linearGradient>
        <linearGradient x1="50%" y1="0%" x2="50%" y2="98.1191293%" id="linearGradient-10">
            <stop stop-color="#202A32" stop-opacity="0" offset="0%"></stop>
            <stop stop-color="#48DC74" offset="100%"></stop>
        </linearGradient>
        <linearGradient x1="131.170878%" y1="100%" x2="0%" y2="0%" id="linearGradient-11">
            <stop stop-color="#9814FF" offset="0%"></stop>
            <stop stop-color="#D395FB" offset="100%"></stop>
        </linearGradient>
        <linearGradient x1="50%" y1="52.5304377%" x2="50%" y2="107.822291%" id="linearGradient-12">
            <stop stop-color="#BA66F3" stop-opacity="0" offset="0%"></stop>
            <stop stop-color="#C063FF" offset="100%"></stop>
        </linearGradient>
        <linearGradient x1="50%" y1="0%" x2="50%" y2="82.7308516%" id="linearGradient-13">
            <stop stop-color="#FFFFFF" offset="0%"></stop>
            <stop stop-color="#A855DB" stop-opacity="0.784659523" offset="21.5340477%"></stop>
            <stop stop-color="#73248A" stop-opacity="0" offset="100%"></stop>
        </linearGradient>
        <filter x="-60.0%" y="-60.0%" width="220.0%" height="220.0%" filterUnits="objectBoundingBox" id="filter-14">
            <feGaussianBlur stdDeviation="1" in="SourceGraphic"></feGaussianBlur>
        </filter>
        <linearGradient x1="50%" y1="0%" x2="50%" y2="82.7308516%" id="linearGradient-15">
            <stop stop-color="#FFFFFF" offset="0%"></stop>
            <stop stop-color="#A855DB" stop-opacity="0.784659523" offset="21.5340477%"></stop>
            <stop stop-color="#73248A" stop-opacity="0" offset="100%"></stop>
        </linearGradient>
        <filter x="-60.0%" y="-60.0%" width="220.0%" height="220.0%" filterUnits="objectBoundingBox" id="filter-16">
            <feGaussianBlur stdDeviation="0.8" in="SourceGraphic"></feGaussianBlur>
        </filter>
    </defs>
    <g id="页面1" stroke="none" stroke-width="1" fill="none" fill-rule="evenodd">
        <g id="切图" transform="translate(-1475.000000, -128.000000)">
            <rect fill="#000000" opacity="0" x="0" y="0" width="2359" height="1956"></rect>
            <g id="阴性图片" transform="translate(1476.000000, 128.000000)">
                <g id="Group-10" transform="translate(1.000000, 0.000000)">
                    <ellipse id="Oval" stroke="url(#linearGradient-1)" cx="154.235242" cy="194.981865" rx="48" ry="16.5925926"></ellipse>
                    <ellipse id="Oval" stroke="url(#linearGradient-2)" cx="155.107143" cy="200.749655" rx="118.607143" ry="41"></ellipse>
                    <g id="Group-2" transform="translate(21.000000, 0.389273)">
                        <mask id="mask-4" fill="white">
                            <use xlink:href="#path-3"></use>
                        </mask>
                        <g id="Clip-2">
                            <use fill="black" fill-opacity="1" filter="url(#filter-5)" xlink:href="#path-3"></use>
                            <use fill="black" fill-opacity="1" filter="url(#filter-6)" xlink:href="#path-3"></use>
                            <use stroke="#BD66F9" stroke-width="0.8448" xlink:href="#path-3"></use>
                        </g>
                        <path d="M59.623463,111.07649 C76.4602282,132.16172 112.325515,159.392963 127.786317,169.287215 C129.160213,170.165709 130.745636,170.630105 132.3724,170.630105 C133.998475,170.630105 135.583898,170.165709 136.955726,169.287215 C152.417907,159.391585 188.284571,132.158964 205.119959,111.07649 C211.945042,102.528319 216.438031,94.1355927 218.718035,86.995105 C218.750128,86.8945955 218.849817,86.6845778 218.881034,86.5845676 C200.637531,110.210847 155.648697,110.664459 126.675626,86.694324 C113.290135,75.6197894 100.790029,71.313447 89.6273007,71.312758 C72.1463066,71.312069 57.9450229,81.8719095 48.7480536,93.5369298 C51.1706296,99.0132193 54.6763368,104.879491 59.623463,111.07649 Z" id="Fill-1" fill="url(#linearGradient-7)" opacity="0.614560082"></path>
                        <path d="M188.850906,71.5976239 C177.330174,71.5983102 166.180015,75.4104181 160.13417,77.852775 C148.992933,82.3518172 129.235942,85.9978532 114.749245,78.450497 C118.700662,80.6478633 122.749525,83.4148155 126.883483,86.8357621 C141.392826,98.8396131 159.621746,104.569126 176.685304,104.599321 L176.937157,104.599321 C193.713863,104.571185 209.981459,98.3032622 218.883469,86.5835179 C211.352582,74.887106 199.957145,71.6010552 188.867376,71.5976239 L188.850906,71.5976239 Z" id="Fill-1" fill="url(#linearGradient-8)"></path>
                        <path d="M217.922879,87.7468496 C217.603137,88.1338691 217.273685,88.511872 216.940072,88.8843262 C193.408871,115.918122 151.259814,131.898975 127.564928,118.669567 C111.820587,109.879093 100.101804,100.021887 81.1052509,103.516853 C72.857852,105.034413 66.3152807,109.245851 61.487941,113.445498 C64.3829577,116.830184 67.6962051,120.337635 71.2813371,123.880459 C71.288273,123.887394 71.2959024,123.89433 71.3028382,123.90196 C72.0102932,124.601092 72.7288455,125.301611 73.4578015,126.002823 C73.4716732,126.017389 73.486932,126.03126 73.5014973,126.045826 C74.2255982,126.74357 74.9587158,127.441315 75.7001563,128.13906 C75.7154152,128.152932 75.7292868,128.166803 75.7445457,128.179981 C76.4922284,128.883968 77.2482342,129.587262 78.0118694,130.289862 C78.1131326,130.383496 78.2137022,130.476436 78.3156589,130.570069 L78.5133302,130.751095 C79.2089942,131.388498 79.9115941,132.027288 80.6176619,132.66261 C80.6287592,132.673708 80.6398566,132.682724 80.6502603,132.691741 C80.6551154,132.696596 80.6571961,132.698677 80.6606641,132.701451 C81.3674254,133.33816 82.0797355,133.973483 82.796207,134.608111 C83.020928,134.806476 83.2442618,135.004147 83.4696764,135.201819 C83.9142633,135.594387 84.3616245,135.986261 84.8089857,136.376749 C84.9095553,136.46414 85.0101249,136.550838 85.1100009,136.637536 C86.2551069,137.634215 87.4029873,138.622572 88.5578035,139.602605 C89.0176492,139.993786 89.4788821,140.382192 89.9394214,140.769905 C90.0427653,140.856603 90.1454156,140.942608 90.2473724,141.028612 C90.3847019,141.14444 90.5206442,141.258188 90.6565865,141.372629 C91.1039477,141.747164 91.551309,142.121006 91.9979766,142.492766 C92.2240848,142.680727 92.4494993,142.866608 92.6749139,143.053182 C93.466986,143.708618 94.2569774,144.357812 95.0476624,145.002151 C95.2682218,145.183176 95.4894749,145.364201 95.7100344,145.542452 C95.7551173,145.579906 95.8015874,145.617359 95.8480575,145.654813 C96.2593524,145.98912 96.6706473,146.321346 97.0819422,146.652185 C97.2366112,146.777724 97.3912803,146.901875 97.5459494,147.026027 C97.6978441,147.148791 97.8504325,147.270862 98.0016336,147.392932 C98.3886531,147.70227 98.7742854,148.012302 99.1592241,148.31956 C99.362444,148.480471 99.5628896,148.639995 99.7654159,148.799519 C100.087239,149.054758 100.409061,149.309997 100.728803,149.563848 C100.788451,149.611012 100.848099,149.658869 100.908441,149.706033 C101.268411,149.989708 101.625606,150.269916 101.984189,150.550817 C102.364966,150.849751 102.74505,151.147299 103.123746,151.442072 C103.446956,151.693842 103.770166,151.944919 104.091295,152.193916 C104.173831,152.257726 104.256368,152.320842 104.338211,152.384651 C104.457507,152.477591 104.577497,152.569838 104.696793,152.661391 C104.868802,152.793865 105.03873,152.925646 105.210045,153.057427 C105.277322,153.109446 105.345294,153.162158 105.411878,153.214177 C105.41812,153.217645 105.422281,153.2225 105.42783,153.225274 C105.664342,153.40838 105.902935,153.59218 106.138059,153.772511 C106.527159,154.070752 106.910017,154.361364 107.296343,154.654056 C107.558518,154.855195 107.824854,155.057721 108.086335,155.25678 C108.305507,155.42324 108.523292,155.586232 108.741077,155.751305 C108.951233,155.909442 109.157227,156.064804 109.365996,156.220167 C109.514423,156.332527 109.663543,156.444194 109.812664,156.555861 C109.854279,156.587072 109.896587,156.619671 109.938896,156.650882 C110.032529,156.722321 110.12755,156.79376 110.221184,156.863119 C110.418162,157.010852 110.615139,157.159279 110.81073,157.304931 C110.812811,157.305625 110.815585,157.307706 110.816972,157.309786 C110.821134,157.312561 110.825989,157.316029 110.830844,157.318803 C112.189574,158.332822 113.519173,159.312161 114.809238,160.251273 C114.922292,160.333116 115.033959,160.414265 115.147013,160.495414 C115.751817,160.935146 116.349686,161.367942 116.937845,161.788254 C116.988476,161.825014 117.040495,161.862467 117.091127,161.899227 C118.371481,162.816838 119.603285,163.685897 120.785845,164.508487 C120.80804,164.523746 120.829541,164.539699 120.851735,164.554957 C120.87393,164.57091 120.897512,164.586862 120.919013,164.602121 C120.960628,164.630558 121.001549,164.659688 121.042471,164.688819 C121.579998,165.06058 122.102266,165.420549 122.615518,165.772196 C122.800011,165.898428 122.979649,166.020499 123.160674,166.143957 C123.286213,166.229267 123.40759,166.31111 123.531048,166.39434 C123.755769,166.546235 123.981877,166.699517 124.201049,166.847944 C124.213534,166.856267 124.225324,166.86459 124.237809,166.872913 C124.402188,166.983886 124.568648,167.095553 124.730947,167.204446 C124.745512,167.214156 124.760077,167.223866 124.775336,167.233576 C125.253215,167.552624 125.722771,167.86543 126.172906,168.160203 C126.179149,168.165058 126.186084,168.16922 126.19302,168.173381 C126.715288,168.516012 127.21883,168.842689 127.702258,169.152721 C129.084569,170.036346 130.679811,170.503821 132.315974,170.504515 C133.954217,170.504515 135.549459,170.03704 136.931077,169.154108 C136.931077,169.152721 136.933158,169.152027 136.934545,169.152027 C136.97616,169.124978 137.02263,169.093766 137.065632,169.066717 C137.07881,169.0577 137.092682,169.048684 137.10586,169.040361 C137.56848,168.743507 138.047052,168.433475 138.542271,168.108185 C138.820398,167.925079 139.113783,167.729488 139.402314,167.536672 C139.627035,167.388245 139.848288,167.243286 140.082026,167.086536 C140.616085,166.728647 141.168177,166.354112 141.733448,165.96848 C141.762578,165.94906 141.790321,165.931027 141.820145,165.910219 C141.821533,165.908832 141.82292,165.908138 141.824307,165.907445 C142.309122,165.575912 142.812663,165.227733 143.319673,164.87678 C143.327302,164.871231 143.335625,164.865683 143.343948,164.85944 C143.511102,164.744306 143.676174,164.629864 143.844715,164.513342 C143.970947,164.42387 144.103422,164.33093 144.231735,164.241458 C144.830297,163.823227 145.436489,163.396673 146.060714,162.954861 C146.098861,162.927117 146.138395,162.899374 146.177236,162.872324 C146.233416,162.831403 146.290983,162.791175 146.347164,162.750947 C147.035198,162.261971 147.735024,161.761897 148.450108,161.245178 C148.482707,161.22229 148.515305,161.198708 148.547903,161.175126 C149.326104,160.613323 150.119563,160.036262 150.927588,159.445329 C151.389514,159.107554 151.854215,158.764924 152.323077,158.418132 C152.896671,157.994353 153.470958,157.56988 154.057036,157.132923 C155.019036,156.412983 156.001843,155.671543 156.992974,154.918311 L157.028346,154.891261 C157.123367,154.819129 157.219775,154.745609 157.31549,154.672783 C157.363347,154.636023 157.411898,154.598569 157.459755,154.562503 C158.437014,153.817594 159.421902,153.061589 160.419275,152.291018 C160.421356,152.288243 160.422743,152.286856 160.42413,152.286162 C160.97761,151.858222 161.53317,151.425426 162.090811,150.989162 C164.613373,149.016611 167.183793,146.966379 169.768778,144.855111 C170.087133,144.595711 170.404794,144.339085 170.723149,144.076911 C172.216433,142.849268 173.713186,141.602899 175.20439,140.343352 L175.244618,140.308673 C176.741371,139.043577 178.233269,137.763915 179.712682,136.475238 C179.791057,136.407266 179.870125,136.337908 179.949887,136.269243 C180.12467,136.117349 180.30084,135.965454 180.475623,135.812866 C180.48464,135.805236 180.492963,135.797607 180.500592,135.790671 C180.509609,135.783042 180.515158,135.778186 180.520013,135.773331 C181.391153,135.01039 182.255358,134.244674 183.114708,133.476877 C183.36093,133.256318 183.603684,133.035064 183.848519,132.814505 C184.484535,132.242992 185.11847,131.670786 185.746163,131.097886 C185.995159,130.869004 186.242075,130.640815 186.490378,130.41332 C187.128474,129.826548 187.762409,129.23839 188.389409,128.651618 C188.597484,128.456721 188.804172,128.262518 189.010859,128.067621 C189.709298,127.410104 190.4008,126.7512 191.084673,126.093683 C191.163048,126.018082 191.242117,125.942482 191.320492,125.866881 C191.366962,125.821798 191.413432,125.777409 191.460596,125.731632 C194.854299,122.450983 198.04062,119.186287 200.899571,116.008288 C201.566798,115.266154 202.212524,114.530956 202.844378,113.799225 C202.967836,113.657041 203.089213,113.514856 203.209897,113.372672 C203.268851,113.304007 203.329193,113.235342 203.387454,113.166677 C203.440166,113.104255 203.494959,113.041832 203.546978,112.97941 C203.75644,112.733881 203.961047,112.489047 204.164961,112.244905 C204.636597,111.678941 205.103379,111.113671 205.549353,110.55603 C212.51501,101.831446 216.61373,93.8283817 218.878279,86.5762748 C218.566167,86.9847954 218.285623,87.308505 217.958945,87.7038474 C217.947154,87.7184127 217.93467,87.7322844 217.922879,87.7468496 Z" id="Fill-1" fill="url(#linearGradient-9)"></path>
                        <path d="M59.2293323,63.4959422 C22.677918,69.8970888 -1.40841223,80.8370081 -1.40832582,93.2575442 C-1.40818855,112.987784 59.3712719,128.982753 134.346399,128.983309 C209.321525,128.983864 270.100763,112.989795 270.100626,93.2595552 C270.100544,81.4671377 248.388612,71.0090494 214.910751,64.5026994" id="椭圆形" stroke="url(#linearGradient-10)" stroke-width="5.88" fill-rule="nonzero" transform="translate(134.346150, 96.239625) rotate(-30.000000) translate(-134.346150, -96.239625) "></path>
                        <circle id="Oval" fill="url(#linearGradient-11)" cx="243.271063" cy="50.7017846" r="4.8751716"></circle>
                        <circle id="Oval" fill="url(#linearGradient-11)" cx="25.29242" cy="132.499964" r="3.95956923"></circle>
                        <polygon id="Path-10" stroke="url(#linearGradient-12)" stroke-width="1.6896" opacity="0.471524004" points="59.2155138 144.093732 132.33236 109.168593 205.112629 144.58125 132.33236 198.448976"></polygon>
                    </g>
                    <g id="Group-9" transform="translate(310.000000, 127.000000)">
                        <path d="M2.43937806,91.7211503 L2.43937806,2" id="Path-14" stroke="url(#linearGradient-13)" stroke-width="2.304"></path>
                        <circle id="Oval" fill="#FFFFFF" filter="url(#filter-14)" cx="2.5" cy="2.5" r="2.5"></circle>
                    </g>
                    <g id="Group-5" opacity="0.6" transform="translate(0.500000, 101.900000)">
                        <path d="M1.95150245,38.3977469 L1.95150245,1.6" id="Path-14" stroke="url(#linearGradient-15)" stroke-width="1.8432"></path>
                        <circle id="Oval" fill="#FFFFFF" filter="url(#filter-16)" cx="2" cy="2" r="2"></circle>
                    </g>
                </g>
            </g>
        </g>
    </g>
</svg>